<?xml version="1.0" encoding="UTF-8" standalone="no"?>
<!DOCTYPE svg PUBLIC "-//W3C//DTD SVG 1.1//EN" "http://www.w3.org/Graphics/SVG/1.1/DTD/svg11.dtd">
<svg width="100%" height="100%" viewBox="0 0 297 100" version="1.1" xmlns="http://www.w3.org/2000/svg" xmlns:xlink="http://www.w3.org/1999/xlink" xml:space="preserve" xmlns:serif="http://www.serif.com/" style="fill-rule:evenodd;clip-rule:evenodd;stroke-linejoin:round;stroke-miterlimit:2;">
    <g transform="matrix(1,0,0,1,-150,0)">
        <g id="catadog" transform="matrix(2.96976,0,0,1,150,0)">
            <rect x="0" y="0" width="100" height="100" style="fill:none;"/>
            <clipPath id="_clip1">
                <rect x="0" y="0" width="100" height="100"/>
            </clipPath>
            <g clip-path="url(#_clip1)">
                <g transform="matrix(2.32477,0,0,10.5077,-999.536,-366.057)">
                    <rect x="429.95" y="34.837" width="43.015" height="9.517" style="fill:none;"/>
                    <g transform="matrix(0.207728,0,0,0.136486,426.849,33.1874)">
                        <circle cx="49.795" cy="46.949" r="34.864" style="fill:none;"/>
                        <clipPath id="_clip2">
                            <circle cx="49.795" cy="46.949" r="34.864"/>
                        </clipPath>
                        <g clip-path="url(#_clip2)">
                            <g transform="matrix(0.697275,0,0,0.697275,-89.6599,12.0851)">
                                <path d="M151.694,62.943C145.985,41.613 160.711,19.268 182.792,19.268C194.822,19.268 205.775,29.042 205.775,41.071C205.775,56.165 187.416,56.243 187.416,71.337C187.416,76.971 191.482,85.724 201.614,85.724C216.376,85.724 218.434,65.883 224.518,65.883C227.653,65.883 227.323,74.308 224.104,77.797C230.513,77.145 235.321,72.443 235.321,64.433C235.321,49.746 215.694,47.639 215.694,37.346C215.694,33.829 218.747,32.419 220.485,33.093C216.259,8.536 185.853,3.538 165.409,13.91C174.394,5.296 186.583,0 200,0C227.596,0 250,22.404 250,50C250,77.596 227.596,100 200,100C176.88,100 157.403,84.273 151.694,62.943ZM222.46,52.898C226.01,52.59 229.088,54.583 229.327,57.347C229.567,60.11 226.879,62.604 223.328,62.912C219.778,63.22 216.701,61.226 216.461,58.463C216.221,55.699 218.909,53.206 222.46,52.898ZM189.653,36.944C192.807,36.944 195.367,39.504 195.367,42.658C195.367,45.812 192.807,48.372 189.653,48.372C186.499,48.372 183.939,45.812 183.939,42.658C183.939,39.504 186.499,36.944 189.653,36.944Z" style="fill:url(#_Radial3);"/>
                            </g>
                        </g>
                    </g>
                    <g transform="matrix(0.100757,0,0,0.0669366,447.206,35.5907)">
                        <path d="M3.696,37.962L3.696,4.122L9.84,4.122L9.84,18.474L14.64,18.474L23.712,4.122L30.48,4.122L20.352,19.578C21.632,20.154 22.752,20.97 23.712,22.026C24.704,23.05 25.584,24.346 26.352,25.914L32.208,37.962L25.536,37.962L21.024,28.218C20.256,26.554 19.328,25.37 18.24,24.666C17.184,23.962 15.856,23.61 14.256,23.61L9.84,23.61L9.84,37.962L3.696,37.962ZM43.095,38.442C41.399,38.442 39.879,38.122 38.535,37.482C37.223,36.81 36.183,35.914 35.415,34.794C34.679,33.674 34.311,32.41 34.311,31.002C34.311,29.274 34.759,27.914 35.655,26.922C36.551,25.898 38.007,25.162 40.023,24.714C42.039,24.266 44.743,24.042 48.135,24.042L49.815,24.042L49.815,23.034C49.815,21.434 49.463,20.282 48.759,19.578C48.055,18.874 46.871,18.522 45.207,18.522C43.895,18.522 42.551,18.73 41.175,19.146C39.799,19.53 38.407,20.138 36.999,20.97L35.271,16.89C36.103,16.314 37.079,15.818 38.199,15.402C39.351,14.954 40.551,14.618 41.799,14.394C43.079,14.138 44.279,14.01 45.399,14.01C48.823,14.01 51.367,14.81 53.031,16.41C54.695,17.978 55.527,20.426 55.527,23.754L55.527,37.962L49.911,37.962L49.911,34.218C49.367,35.53 48.503,36.57 47.319,37.338C46.135,38.074 44.727,38.442 43.095,38.442ZM44.343,34.314C45.911,34.314 47.207,33.77 48.231,32.682C49.287,31.594 49.815,30.218 49.815,28.554L49.815,27.498L48.183,27.498C45.175,27.498 43.079,27.738 41.895,28.218C40.743,28.666 40.167,29.498 40.167,30.714C40.167,31.77 40.535,32.634 41.271,33.306C42.007,33.978 43.031,34.314 44.343,34.314ZM66.689,37.962L66.689,19.194L58.673,19.194L58.673,14.49L80.753,14.49L80.753,19.194L72.689,19.194L72.689,37.962L66.689,37.962ZM91.728,38.442C90.032,38.442 88.512,38.122 87.168,37.482C85.856,36.81 84.816,35.914 84.048,34.794C83.312,33.674 82.944,32.41 82.944,31.002C82.944,29.274 83.392,27.914 84.288,26.922C85.184,25.898 86.64,25.162 88.656,24.714C90.672,24.266 93.376,24.042 96.768,24.042L98.448,24.042L98.448,23.034C98.448,21.434 98.096,20.282 97.392,19.578C96.688,18.874 95.504,18.522 93.84,18.522C92.528,18.522 91.184,18.73 89.808,19.146C88.432,19.53 87.04,20.138 85.632,20.97L83.904,16.89C84.736,16.314 85.712,15.818 86.832,15.402C87.984,14.954 89.184,14.618 90.432,14.394C91.712,14.138 92.912,14.01 94.032,14.01C97.456,14.01 100,14.81 101.664,16.41C103.328,17.978 104.16,20.426 104.16,23.754L104.16,37.962L98.544,37.962L98.544,34.218C98,35.53 97.136,36.57 95.952,37.338C94.768,38.074 93.36,38.442 91.728,38.442ZM92.976,34.314C94.544,34.314 95.84,33.77 96.864,32.682C97.92,31.594 98.448,30.218 98.448,28.554L98.448,27.498L96.816,27.498C93.808,27.498 91.712,27.738 90.528,28.218C89.376,28.666 88.8,29.498 88.8,30.714C88.8,31.77 89.168,32.634 89.904,33.306C90.64,33.978 91.664,34.314 92.976,34.314ZM109.755,38.634L107.883,33.882C109.227,33.402 110.299,32.714 111.099,31.818C111.899,30.89 112.459,29.626 112.779,28.026C113.131,26.394 113.307,24.298 113.307,21.738L113.307,14.49L132.219,14.49L132.219,37.962L126.219,37.962L126.219,19.194L118.827,19.194L118.827,21.93C118.827,26.986 118.107,30.842 116.667,33.498C115.259,36.122 112.955,37.834 109.755,38.634ZM149.291,38.442C146.859,38.442 144.747,37.946 142.955,36.954C141.163,35.962 139.771,34.554 138.779,32.73C137.787,30.874 137.291,28.698 137.291,26.202C137.291,23.706 137.787,21.546 138.779,19.722C139.771,17.898 141.163,16.49 142.955,15.498C144.747,14.506 146.859,14.01 149.291,14.01C151.723,14.01 153.835,14.506 155.627,15.498C157.419,16.49 158.811,17.898 159.803,19.722C160.795,21.546 161.291,23.706 161.291,26.202C161.291,28.698 160.795,30.874 159.803,32.73C158.811,34.554 157.419,35.962 155.627,36.954C153.835,37.946 151.723,38.442 149.291,38.442ZM149.291,33.882C151.083,33.882 152.523,33.242 153.611,31.962C154.699,30.65 155.243,28.73 155.243,26.202C155.243,23.642 154.699,21.738 153.611,20.49C152.523,19.21 151.083,18.57 149.291,18.57C147.499,18.57 146.059,19.21 144.971,20.49C143.883,21.738 143.339,23.642 143.339,26.202C143.339,28.73 143.883,30.65 144.971,31.962C146.059,33.242 147.499,33.882 149.291,33.882ZM166.372,37.962L166.372,14.49L184.132,14.49L184.132,19.194L172.372,19.194L172.372,37.962L166.372,37.962ZM14.304,73.48C11.84,73.48 9.696,72.984 7.872,71.992C6.048,70.968 4.64,69.528 3.648,67.672C2.656,65.816 2.16,63.64 2.16,61.144C2.16,58.648 2.656,56.504 3.648,54.712C4.64,52.888 6.048,51.496 7.872,50.536C9.696,49.544 11.84,49.048 14.304,49.048C15.808,49.048 17.296,49.288 18.768,49.768C20.24,50.248 21.456,50.92 22.416,51.784L20.64,55.96C19.808,55.224 18.864,54.664 17.808,54.28C16.784,53.896 15.792,53.704 14.832,53.704C12.752,53.704 11.136,54.36 9.984,55.672C8.864,56.952 8.304,58.792 8.304,61.192C8.304,63.56 8.864,65.432 9.984,66.808C11.136,68.152 12.752,68.824 14.832,68.824C15.76,68.824 16.752,68.632 17.808,68.248C18.864,67.864 19.808,67.288 20.64,66.52L22.416,70.744C21.456,71.576 20.224,72.248 18.72,72.76C17.248,73.24 15.776,73.48 14.304,73.48ZM37.888,73.48C35.232,73.48 32.944,72.984 31.024,71.992C29.104,71 27.616,69.592 26.56,67.768C25.536,65.944 25.024,63.784 25.024,61.288C25.024,58.856 25.52,56.728 26.512,54.904C27.536,53.08 28.928,51.656 30.688,50.632C32.48,49.576 34.512,49.048 36.784,49.048C40.112,49.048 42.736,50.104 44.656,52.216C46.608,54.328 47.584,57.208 47.584,60.856L47.584,62.632L30.784,62.632C31.232,66.824 33.632,68.92 37.984,68.92C39.296,68.92 40.608,68.728 41.92,68.344C43.232,67.928 44.432,67.288 45.52,66.424L47.2,70.456C46.08,71.384 44.672,72.12 42.976,72.664C41.28,73.208 39.584,73.48 37.888,73.48ZM37.024,53.128C35.264,53.128 33.84,53.672 32.752,54.76C31.664,55.848 31.008,57.32 30.784,59.176L42.592,59.176C42.464,57.224 41.92,55.736 40.96,54.712C40.032,53.656 38.72,53.128 37.024,53.128ZM52.512,78.678L52.512,49.528L58.368,49.528L58.368,53.272C59.04,51.992 60.048,50.968 61.392,50.2C62.768,49.432 64.32,49.048 66.048,49.048C68.096,49.048 69.888,49.544 71.424,50.536C72.992,51.528 74.208,52.936 75.072,54.76C75.936,56.552 76.368,58.712 76.368,61.24C76.368,63.736 75.936,65.912 75.072,67.768C74.208,69.592 73.008,71 71.472,71.992C69.936,72.984 68.128,73.48 66.048,73.48C64.384,73.48 62.88,73.128 61.536,72.424C60.224,71.688 59.216,70.712 58.512,69.496L58.512,78.678L52.512,78.678ZM64.368,68.92C66.16,68.92 67.6,68.28 68.688,67C69.776,65.688 70.32,63.768 70.32,61.24C70.32,58.68 69.776,56.776 68.688,55.528C67.6,54.248 66.16,53.608 64.368,53.608C62.576,53.608 61.136,54.248 60.048,55.528C58.96,56.776 58.416,58.68 58.416,61.24C58.416,63.768 58.96,65.688 60.048,67C61.136,68.28 62.576,68.92 64.368,68.92ZM81.468,73L81.468,49.528L94.14,49.528C97.18,49.528 99.356,50.072 100.668,51.16C102.012,52.216 102.684,53.72 102.684,55.672C102.684,56.888 102.348,57.944 101.676,58.84C101.004,59.736 100.076,60.392 98.892,60.808C100.428,61.16 101.58,61.832 102.348,62.824C103.116,63.816 103.5,65.016 103.5,66.424C103.5,68.44 102.732,70.04 101.196,71.224C99.66,72.408 97.436,73 94.524,73L81.468,73ZM87.036,59.176L93.564,59.176C94.716,59.176 95.612,58.92 96.252,58.408C96.892,57.864 97.212,57.112 97.212,56.152C97.212,55.192 96.892,54.472 96.252,53.992C95.612,53.48 94.716,53.224 93.564,53.224L87.036,53.224L87.036,59.176ZM87.036,69.304L93.996,69.304C96.684,69.304 98.028,68.232 98.028,66.088C98.028,63.944 96.684,62.872 93.996,62.872L87.036,62.872L87.036,69.304ZM108.269,73L108.269,49.528L113.693,49.528L113.693,65.176L125.453,49.528L130.445,49.528L130.445,73L125.021,73L125.021,57.352L113.261,73L108.269,73ZM147.654,73.48C145.19,73.48 143.046,72.984 141.222,71.992C139.398,70.968 137.99,69.528 136.998,67.672C136.006,65.816 135.51,63.64 135.51,61.144C135.51,58.648 136.006,56.504 136.998,54.712C137.99,52.888 139.398,51.496 141.222,50.536C143.046,49.544 145.19,49.048 147.654,49.048C149.158,49.048 150.646,49.288 152.118,49.768C153.59,50.248 154.806,50.92 155.766,51.784L153.99,55.96C153.158,55.224 152.214,54.664 151.158,54.28C150.134,53.896 149.142,53.704 148.182,53.704C146.102,53.704 144.486,54.36 143.334,55.672C142.214,56.952 141.654,58.792 141.654,61.192C141.654,63.56 142.214,65.432 143.334,66.808C144.486,68.152 146.102,68.824 148.182,68.824C149.11,68.824 150.102,68.632 151.158,68.248C152.214,67.864 153.158,67.288 153.99,66.52L155.766,70.744C154.806,71.576 153.574,72.248 152.07,72.76C150.598,73.24 149.126,73.48 147.654,73.48ZM159.622,73L159.622,49.528L165.622,49.528L165.622,58.6L175.99,58.6L175.99,49.528L181.99,49.528L181.99,73L175.99,73L175.99,63.304L165.622,63.304L165.622,73L159.622,73ZM188.345,73L188.345,49.528L194.345,49.528L194.345,57.304L200.537,57.304C203.641,57.304 205.977,57.96 207.545,59.272C209.145,60.584 209.945,62.504 209.945,65.032C209.945,67.432 209.097,69.368 207.401,70.84C205.737,72.28 203.449,73 200.537,73L188.345,73ZM212.777,73L212.777,49.528L218.777,49.528L218.777,73L212.777,73ZM194.345,69.064L199.625,69.064C201.129,69.064 202.297,68.744 203.129,68.104C203.961,67.432 204.377,66.424 204.377,65.08C204.377,63.768 203.961,62.808 203.129,62.2C202.297,61.56 201.129,61.24 199.625,61.24L194.345,61.24L194.345,69.064ZM221.915,73L231.755,60.856L222.539,49.528L229.547,49.528L235.211,56.776L240.875,49.528L247.883,49.528L238.619,60.904L248.507,73L241.451,73L235.163,65.08L228.923,73L221.915,73ZM1.248,113.715L1.248,103.334L3.936,103.334C4.864,101.862 5.52,100.182 5.904,98.294C6.32,96.406 6.528,94.054 6.528,91.238L6.528,84.566L24.816,84.566L24.816,103.334L28.656,103.334L28.656,113.715L23.568,113.715L23.568,108.038L6.336,108.038L6.336,113.715L1.248,113.715ZM9.36,103.334L19.2,103.334L19.2,89.174L11.664,89.174L11.664,92.63C11.664,94.646 11.456,96.598 11.04,98.486C10.656,100.374 10.096,101.99 9.36,103.334ZM42.72,108.518C40.288,108.518 38.176,108.022 36.384,107.03C34.592,106.038 33.2,104.63 32.208,102.806C31.216,100.95 30.72,98.774 30.72,96.278C30.72,93.782 31.216,91.622 32.208,89.798C33.2,87.974 34.592,86.566 36.384,85.574C38.176,84.582 40.288,84.086 42.72,84.086C45.152,84.086 47.264,84.582 49.056,85.574C50.848,86.566 52.24,87.974 53.232,89.798C54.224,91.622 54.72,93.782 54.72,96.278C54.72,98.774 54.224,100.95 53.232,102.806C52.24,104.63 50.848,106.038 49.056,107.03C47.264,108.022 45.152,108.518 42.72,108.518ZM42.72,103.958C44.512,103.958 45.952,103.318 47.04,102.038C48.128,100.726 48.672,98.806 48.672,96.278C48.672,93.718 48.128,91.814 47.04,90.566C45.952,89.286 44.512,88.646 42.72,88.646C40.928,88.646 39.488,89.286 38.4,90.566C37.312,91.814 36.768,93.718 36.768,96.278C36.768,98.806 37.312,100.726 38.4,102.038C39.488,103.318 40.928,103.958 42.72,103.958ZM69.89,108.518C67.426,108.518 65.282,108.022 63.458,107.03C61.634,106.006 60.226,104.566 59.234,102.71C58.242,100.854 57.746,98.678 57.746,96.182C57.746,93.686 58.242,91.542 59.234,89.75C60.226,87.926 61.634,86.534 63.458,85.574C65.282,84.582 67.426,84.086 69.89,84.086C71.394,84.086 72.882,84.326 74.354,84.806C75.826,85.286 77.042,85.958 78.002,86.822L76.226,90.998C75.394,90.262 74.45,89.702 73.394,89.318C72.37,88.934 71.378,88.742 70.418,88.742C68.338,88.742 66.722,89.398 65.57,90.71C64.45,91.99 63.89,93.83 63.89,96.23C63.89,98.598 64.45,100.47 65.57,101.846C66.722,103.19 68.338,103.862 70.418,103.862C71.346,103.862 72.338,103.67 73.394,103.286C74.45,102.902 75.394,102.326 76.226,101.558L78.002,105.782C77.042,106.614 75.81,107.286 74.306,107.798C72.834,108.278 71.362,108.518 69.89,108.518ZM88.114,108.038L88.114,89.27L80.098,89.27L80.098,84.566L102.177,84.566L102.177,89.27L94.114,89.27L94.114,108.038L88.114,108.038ZM111.294,113.715L114.312,107.078L104.568,84.566L110.952,84.566L117.528,100.982L124.248,84.566L130.296,84.566L117.486,113.715L111.294,113.715ZM133.274,108.038L133.274,84.566L155.498,84.566L155.498,108.038L149.498,108.038L149.498,89.27L139.274,89.27L139.274,108.038L133.274,108.038ZM172.608,108.518C170.176,108.518 168.064,108.022 166.272,107.03C164.48,106.038 163.088,104.63 162.096,102.806C161.104,100.95 160.608,98.774 160.608,96.278C160.608,93.782 161.104,91.622 162.096,89.798C163.088,87.974 164.48,86.566 166.272,85.574C168.064,84.582 170.176,84.086 172.608,84.086C175.04,84.086 177.152,84.582 178.944,85.574C180.736,86.566 182.128,87.974 183.12,89.798C184.112,91.622 184.608,93.782 184.608,96.278C184.608,98.774 184.112,100.95 183.12,102.806C182.128,104.63 180.736,106.038 178.944,107.03C177.152,108.022 175.04,108.518 172.608,108.518ZM172.608,103.958C174.4,103.958 175.84,103.318 176.928,102.038C178.016,100.726 178.56,98.806 178.56,96.278C178.56,93.718 178.016,91.814 176.928,90.566C175.84,89.286 174.4,88.646 172.608,88.646C170.816,88.646 169.376,89.286 168.288,90.566C167.2,91.814 166.656,93.718 166.656,96.278C166.656,98.806 167.2,100.726 168.288,102.038C169.376,103.318 170.816,103.958 172.608,103.958ZM189.689,108.038L189.689,84.566L202.361,84.566C205.401,84.566 207.577,85.11 208.889,86.198C210.233,87.254 210.905,88.758 210.905,90.71C210.905,91.926 210.569,92.982 209.897,93.878C209.225,94.774 208.297,95.43 207.113,95.846C208.649,96.198 209.801,96.87 210.569,97.862C211.337,98.854 211.721,100.054 211.721,101.462C211.721,103.478 210.953,105.078 209.417,106.262C207.881,107.446 205.657,108.038 202.745,108.038L189.689,108.038ZM195.257,94.214L201.785,94.214C202.937,94.214 203.833,93.958 204.473,93.446C205.113,92.902 205.433,92.15 205.433,91.19C205.433,90.23 205.113,89.51 204.473,89.03C203.833,88.518 202.937,88.262 201.785,88.262L195.257,88.262L195.257,94.214ZM195.257,104.342L202.217,104.342C204.905,104.342 206.249,103.27 206.249,101.126C206.249,98.982 204.905,97.91 202.217,97.91L195.257,97.91L195.257,104.342Z" style="fill:rgb(64,64,64);fill-rule:nonzero;"/>
                    </g>
                </g>
            </g>
        </g>
    </g>
    <defs>
        <radialGradient id="_Radial3" cx="0" cy="0" r="1" gradientUnits="userSpaceOnUse" gradientTransform="matrix(32.9268,0,0,32.9268,42.5804,41.8294)"><stop offset="0" style="stop-color:rgb(115,115,115);stop-opacity:1"/><stop offset="1" style="stop-color:black;stop-opacity:1"/></radialGradient>
    </defs>
</svg>
